<?xml version="1.0" encoding="UTF-8" standalone="no"?>
<!DOCTYPE svg PUBLIC "-//W3C//DTD SVG 1.1//EN" "http://www.w3.org/Graphics/SVG/1.1/DTD/svg11.dtd">
<svg width="100%" height="100%" viewBox="0 0 302 301" version="1.1" xmlns="http://www.w3.org/2000/svg" xmlns:xlink="http://www.w3.org/1999/xlink" xml:space="preserve" xmlns:serif="http://www.serif.com/" style="fill-rule:evenodd;clip-rule:evenodd;stroke-linecap:square;stroke-linejoin:round;stroke-miterlimit:1.5;">
    <g transform="matrix(1.87588,0,0,1.20873,-664.945,-134.321)">
        <g transform="matrix(64,0,0,64,403.767,293.912)">
            <path d="M0.179,0.008C0.138,0.008 0.103,-0.006 0.073,-0.035C0.044,-0.065 0.03,-0.1 0.03,-0.141L0.03,-0.738C0.03,-0.779 0.044,-0.814 0.073,-0.844C0.103,-0.873 0.138,-0.887 0.179,-0.887C0.22,-0.887 0.255,-0.873 0.284,-0.844C0.314,-0.814 0.328,-0.779 0.328,-0.738L0.328,-0.141C0.328,-0.1 0.314,-0.065 0.284,-0.035C0.255,-0.006 0.22,0.008 0.179,0.008ZM0.179,-0.051C0.203,-0.051 0.225,-0.06 0.242,-0.078C0.26,-0.095 0.269,-0.116 0.269,-0.141L0.269,-0.738C0.269,-0.763 0.26,-0.784 0.242,-0.801C0.225,-0.819 0.203,-0.828 0.179,-0.828C0.154,-0.828 0.133,-0.819 0.115,-0.801C0.098,-0.784 0.089,-0.763 0.089,-0.738L0.089,-0.141C0.089,-0.116 0.098,-0.095 0.115,-0.078C0.133,-0.06 0.154,-0.051 0.179,-0.051Z" style="fill-rule:nonzero;"/>
        </g>
        <g transform="matrix(64,0,0,64,426.673,293.912)">
            <path d="M0.285,0.018L0.101,-0.35L0.09,-0.35L0.09,0.008L0.03,0.008L0.03,-0.887L0.179,-0.887C0.201,-0.887 0.222,-0.879 0.24,-0.864C0.258,-0.848 0.274,-0.827 0.287,-0.802C0.301,-0.776 0.311,-0.747 0.318,-0.715C0.325,-0.683 0.328,-0.651 0.328,-0.619C0.328,-0.586 0.325,-0.554 0.318,-0.522C0.311,-0.49 0.301,-0.462 0.287,-0.436C0.274,-0.41 0.258,-0.389 0.24,-0.374C0.222,-0.358 0.201,-0.35 0.179,-0.35L0.168,-0.35L0.338,-0.008L0.285,0.018ZM0.179,-0.41C0.192,-0.41 0.206,-0.419 0.219,-0.439C0.233,-0.458 0.245,-0.484 0.254,-0.516C0.264,-0.548 0.269,-0.582 0.269,-0.619C0.269,-0.655 0.264,-0.69 0.254,-0.721C0.245,-0.753 0.233,-0.779 0.219,-0.798C0.206,-0.817 0.192,-0.827 0.179,-0.827L0.09,-0.827L0.09,-0.41L0.179,-0.41Z" style="fill-rule:nonzero;"/>
        </g>
        <g transform="matrix(64,0,0,64,449.58,293.912)">
            <path d="M0.06,0.008L0.03,0.008L0.03,-0.887L0.06,-0.887C0.109,-0.887 0.154,-0.875 0.195,-0.851C0.235,-0.827 0.267,-0.794 0.292,-0.753C0.316,-0.713 0.328,-0.668 0.328,-0.619L0.328,-0.26C0.328,-0.211 0.316,-0.166 0.292,-0.125C0.267,-0.085 0.235,-0.052 0.195,-0.028C0.154,-0.004 0.109,0.008 0.06,0.008ZM0.089,-0.054C0.124,-0.059 0.154,-0.071 0.181,-0.09C0.208,-0.11 0.229,-0.134 0.245,-0.164C0.261,-0.193 0.269,-0.225 0.269,-0.26L0.269,-0.619C0.269,-0.653 0.261,-0.686 0.245,-0.715C0.229,-0.745 0.208,-0.769 0.181,-0.789C0.154,-0.808 0.124,-0.82 0.089,-0.825L0.089,-0.054Z" style="fill-rule:nonzero;"/>
        </g>
        <g transform="matrix(64,0,0,64,472.486,293.912)">
            <rect x="0.03" y="-0.887" width="0.06" height="0.896" style="fill-rule:nonzero;"/>
        </g>
        <g transform="matrix(64,0,0,64,480.111,293.912)">
            <path d="M0.329,0.008L0.03,0.008L0.03,-0.887L0.329,-0.887L0.329,-0.828L0.09,-0.828L0.09,-0.469L0.269,-0.469L0.269,-0.41L0.09,-0.41L0.09,-0.051L0.329,-0.051L0.329,0.008Z" style="fill-rule:nonzero;"/>
        </g>
    </g>
    <g transform="matrix(0.724339,0,0,0.814842,-148.516,-254.823)">
        <path d="M300.71,426.786C300.71,458.695 346.135,484.563 402.17,484.563C458.205,484.563 503.631,458.695 503.631,426.786L402.17,426.786L300.71,426.786Z" style="fill:rgb(227,140,55);"/>
    </g>
    <g transform="matrix(0.142661,-0.96601,1.54292,0.227859,-715.909,790.337)">
        <path d="M828.569,521.271C823.736,524.093 821.022,527.921 821.022,531.912C821.022,540.217 832.568,546.96 846.789,546.96C861.021,546.96 872.557,540.223 872.557,531.912L866.115,531.912C866.115,538.145 857.463,543.198 846.789,543.198C836.123,543.198 827.464,538.141 827.464,531.912C827.464,528.918 829.5,526.048 833.124,523.931L828.569,521.271Z" style="fill:rgb(227,140,55);"/>
    </g>
    <g transform="matrix(0.830965,0,0,1.25555,-191.661,-463.098)">
        <path d="M300.71,426.786C300.71,458.695 346.135,484.563 402.17,484.563C458.205,484.563 503.631,458.695 503.631,426.786L494.174,426.786C494.174,455.721 452.982,479.177 402.17,479.177C351.358,479.177 310.167,455.721 310.167,426.786L300.71,426.786Z" style="fill:rgb(0,144,111);"/>
    </g>
    <g transform="matrix(1,0,0,1,-561.867,-391.107)">
        <path d="M623.867,463.862L598.852,463.862" style="fill:none;stroke:rgb(0,144,111);stroke-width:8px;"/>
    </g>
    <g transform="matrix(1,0,0,1,-375.795,-391.107)">
        <path d="M623.867,463.862L598.852,463.862" style="fill:none;stroke:rgb(0,144,111);stroke-width:8px;"/>
    </g>
    <g transform="matrix(6.12323e-17,-2.94482,1,1.80318e-16,-321.335,1982.47)">
        <path d="M623.867,463.862L598.852,463.862" style="fill:none;stroke:rgb(0,144,111);stroke-width:3.64px;"/>
    </g>
    <g transform="matrix(0.907829,0,0,1.08375,-506.097,-457.613)">
        <path d="M655.531,574.409C655.531,567.116 648.463,561.196 639.757,561.196L608.209,561.196C599.503,561.196 592.435,567.116 592.435,574.409L592.435,611.078C592.435,618.371 599.503,624.292 608.209,624.292L639.757,624.292C648.463,624.292 655.531,618.371 655.531,611.078L655.531,574.409Z" style="fill:rgb(227,140,55);stroke:rgb(227,140,55);stroke-width:1.5px;"/>
    </g>
    <g transform="matrix(0.979381,-4.88449e-17,-4.88449e-17,1,-548.487,-405.331)">
        <path d="M592.435,550.627L832.384,550.627" style="fill:none;stroke:rgb(227,140,55);stroke-width:1.51px;"/>
    </g>
</svg>
