<?xml version="1.0" encoding="UTF-8" standalone="no"?>
<!DOCTYPE svg PUBLIC "-//W3C//DTD SVG 1.1//EN" "http://www.w3.org/Graphics/SVG/1.1/DTD/svg11.dtd">
<svg width="100%" height="100%" viewBox="0 0 273 165" version="1.1" xmlns="http://www.w3.org/2000/svg" xmlns:xlink="http://www.w3.org/1999/xlink" xml:space="preserve" xmlns:serif="http://www.serif.com/" style="fill-rule:evenodd;clip-rule:evenodd;stroke-linecap:square;stroke-linejoin:round;stroke-miterlimit:1.5;">
    <rect id="Artboard3" x="0" y="0" width="272.107" height="164.089" style="fill:none;"/>
    <path d="M98.931,157.808C94.007,157.808 89.796,156.681 86.298,154.427C82.8,152.174 81.051,149.448 81.051,146.25L81.051,100.091C81.051,96.893 82.8,94.167 86.298,91.914C89.796,89.66 94.007,88.533 98.931,88.533C103.894,88.533 108.124,89.66 111.622,91.914C115.12,94.167 116.869,96.893 116.869,100.091L116.869,146.25C116.869,149.448 115.12,152.174 111.622,154.427C108.124,156.681 103.894,157.808 98.931,157.808ZM98.931,153.2C101.901,153.2 104.441,152.52 106.551,151.16C108.662,149.8 109.717,148.163 109.717,146.25L109.717,100.091C109.717,98.178 108.662,96.541 106.551,95.181C104.441,93.821 101.901,93.141 98.931,93.141C95.961,93.141 93.43,93.821 91.339,95.181C89.248,96.541 88.203,98.178 88.203,100.091L88.203,146.25C88.203,148.163 89.248,149.8 91.339,151.16C93.43,152.52 95.961,153.2 98.931,153.2Z" style="fill:#00906f;fill-rule:nonzero;"/>
    <path d="M154.68,158.564L132.579,130.083L131.231,130.083L131.231,157.808L124.021,157.808L124.021,88.533L141.959,88.533C144.616,88.533 147.049,89.137 149.257,90.346C151.465,91.555 153.361,93.16 154.943,95.162C156.526,97.164 157.738,99.399 158.578,101.867C159.418,104.335 159.838,106.815 159.838,109.308C159.838,111.826 159.418,114.313 158.578,116.768C157.738,119.223 156.526,121.452 154.943,123.454C153.361,125.456 151.465,127.061 149.257,128.27C147.049,129.479 144.616,130.083 141.959,130.083L140.611,130.083L161.069,156.524L154.68,158.564ZM141.959,125.475C143.522,125.475 145.134,124.719 146.795,123.208C148.456,121.697 149.853,119.714 150.987,117.259C152.12,114.804 152.687,112.154 152.687,109.308C152.687,106.462 152.12,103.812 150.987,101.357C149.853,98.902 148.456,96.925 146.795,95.427C145.134,93.928 143.522,93.179 141.959,93.179L131.231,93.179L131.231,125.475L141.959,125.475Z" style="fill:#00906f;fill-rule:nonzero;"/>
    <path d="M170.566,157.808L166.99,157.808L166.99,88.533L170.566,88.533C176.506,88.533 181.909,89.471 186.775,91.347C191.64,93.223 195.529,95.735 198.441,98.883C201.352,102.03 202.808,105.506 202.808,109.308L202.808,137.033C202.808,140.836 201.352,144.311 198.441,147.458C195.529,150.606 191.64,153.118 186.775,154.994C181.909,156.87 176.506,157.808 170.566,157.808ZM174.142,153.011C178.245,152.608 181.909,151.664 185.133,150.178C188.358,148.692 190.917,146.804 192.813,144.512C194.708,142.221 195.656,139.728 195.656,137.033L195.656,109.308C195.656,106.614 194.708,104.121 192.813,101.829C190.917,99.537 188.358,97.649 185.133,96.163C181.909,94.677 178.245,93.733 174.142,93.33L174.142,153.011Z" style="fill:#00906f;fill-rule:nonzero;"/>
    <rect x="209.96" y="88.533" width="7.152" height="69.275" style="fill:#00906f;fill-rule:nonzero;"/>
    <path d="M260.14,157.808L224.322,157.808L224.322,88.533L260.14,88.533L260.14,93.141L231.474,93.141L231.474,120.866L252.988,120.866L252.988,125.475L231.474,125.475L231.474,153.2L260.14,153.2L260.14,157.808Z" style="fill:#00906f;fill-rule:nonzero;"/>
    <path d="M54.3,29.168C54.3,55.169 87.203,76.247 127.792,76.247C168.38,76.247 201.283,55.169 201.283,29.168L127.792,29.168L54.3,29.168Z" style="fill:#df8b00;"/>
    <path d="M191.574,44.935C195.239,50.246 200.757,53.741 206.915,54.65C219.73,56.543 231.781,46.925 233.81,33.187C235.84,19.44 227.09,6.76 214.267,4.866L213.348,11.089C222.966,12.51 229.528,22.019 228.005,32.33C226.483,42.633 217.445,49.846 207.834,48.427C203.216,47.745 199.077,45.124 196.328,41.141L191.574,44.935Z" style="fill:#df8b00;"/>
    <path d="M43.218,8.983C43.218,49.046 80.965,81.524 127.528,81.524C174.091,81.524 211.838,49.046 211.838,8.983L203.979,8.983C203.979,45.312 169.751,74.763 127.528,74.763C85.305,74.763 51.076,45.312 51.076,8.983L43.218,8.983Z" style="fill:#00906f;"/>
    <path d="M47,8.983L21.985,8.983" style="fill:none;stroke:#00906f;stroke-width:8px;"/>
    <path d="M233.072,8.983L208.057,8.983" style="fill:none;stroke:#00906f;stroke-width:8px;"/>
    <path d="M127.528,81.524L127.528,155.189" style="fill:none;stroke:#00906f;stroke-width:8px;"/>
    <path d="M74.013,101.128C74.013,93.225 67.597,86.808 59.693,86.808L31.053,86.808C23.149,86.808 16.733,93.225 16.733,101.128L16.733,140.868C16.733,148.772 23.149,155.189 31.053,155.189L59.693,155.189C67.597,155.189 74.013,148.772 74.013,140.868L74.013,101.128Z" style="fill:#df8b00;stroke:#e38c37;stroke-width:1.5px;"/>
    <path d="M16.733,81.524L251.735,81.524" style="fill:none;stroke:#e38c37;stroke-width:1.5px;"/>
</svg>
